<svg width="277.2353515625px" height="96.8px" xmlns="http://www.w3.org/2000/svg" viewBox="111.38232421875 26.6 277.2353515625 96.8" style="background:#051103" preserveAspectRatio="xMidYMid"><defs><linearGradient id="editing-glowing-gradient" x1="0.953153893518325" x2="0.04684610648167503" y1="0.28869086912965025" y2="0.7113091308703497"><stop offset="0" stop-color="#ff55a5"></stop><stop offset="1" stop-color="#90ffff"></stop></linearGradient><filter id="editing-glowing" x="-100%" y="-100%" width="300%" height="300%"><feGaussianBlur in="SourceGraphic" result="blur" stdDeviation="1"></feGaussianBlur><feMerge><feMergeNode in="blur"></feMergeNode><feMergeNode in="SourceGraphic"></feMergeNode></feMerge></filter></defs><g filter="url(#editing-glowing)"><g transform="translate(156.22003263235092, 92.19999885559082)"><path d="M19.11-3.68L19.11-3.68L19.11-3.68Q19.11-7.11 20.48-13.96L20.48-13.96L13.23-13.96L10.54 0L0.29 0L6.52-32.34L16.86-32.34L14.01-17.89L21.27-17.89L23.96-32.34L34.30-32.34L34.30-32.34Q33.61-28.71 32.73-24.65L32.73-24.65L31.07-16.66L31.07-16.66Q29.20-7.35 29.20-3.28L29.20-3.28L29.20-3.28Q29.20-1.62 29.74-0.69L29.74-0.69L29.74-0.69Q27.29 0.98 24.43 0.98L24.43 0.98L24.43 0.98Q21.56 0.98 20.34-0.39L20.34-0.39L20.34-0.39Q19.11-1.76 19.11-3.68ZM36.41-7.25L36.41-7.25L36.41-7.25Q36.41-9.16 36.90-11.61L36.90-11.61L40.87-32.34L51.70-32.34L47.77-11.47L47.77-11.47Q47.33-9.16 47.33-7.47L47.33-7.47L47.33-7.47Q47.33-5.78 48.04-4.90L48.04-4.90L48.04-4.90Q48.76-4.02 50.08-4.02L50.08-4.02L50.08-4.02Q51.40-4.02 52.23-4.36L52.23-4.36L52.23-4.36Q53.07-4.70 53.75-5.54L53.75-5.54L53.75-5.54Q55.08-7.20 55.91-11.47L55.91-11.47L59.88-32.34L67.28-32.34L63.36-11.52L63.36-11.52Q61.98-4.56 58.21-1.76L58.21-1.76L58.21-1.76Q54.54 0.98 47.29 0.98L47.29 0.98L47.29 0.98Q41.85 0.98 38.95-1.37L38.95-1.37L38.95-1.37Q36.41-3.43 36.41-7.25ZM87.37-22.64L87.37-22.64L87.37-22.64Q88.10-24.11 88.10-25.48L88.10-25.48L88.10-25.48Q88.10-26.85 87.96-27.61L87.96-27.61L87.96-27.61Q87.81-28.37 87.47-28.96L87.47-28.96L87.47-28.96Q86.73-30.23 85.26-30.23L85.26-30.23L85.26-30.23Q83.45-30.23 81.98-28.91L81.98-28.91L81.98-28.91Q80.41-27.54 80.41-25.38L80.41-25.38L80.41-25.38Q80.41-24.01 81.36-22.96L81.36-22.96L81.36-22.96Q82.32-21.90 83.79-20.92L83.79-20.92L83.79-20.92Q85.26-19.94 86.93-18.96L86.93-18.96L86.93-18.96Q88.59-17.98 90.06-16.81L90.06-16.81L90.06-16.81Q93.44-14.11 93.44-10.49L93.44-10.49L93.44-10.49Q93.44-8.04 92.14-5.95L92.14-5.95L92.14-5.95Q90.85-3.87 88.69-2.35L88.69-2.35L88.69-2.35Q83.99 0.98 77.76 0.98L77.76 0.98L77.76 0.98Q72.72 0.98 70.12-0.66L70.12-0.66L70.12-0.66Q67.52-2.30 67.52-4.80L67.52-4.80L67.52-4.80Q67.52-9.26 71.00-10.39L71.00-10.39L71.00-10.39Q71.98-10.73 73.48-10.73L73.48-10.73L73.48-10.73Q74.97-10.73 76.69-10.09L76.69-10.09L76.69-10.09Q75.90-8.09 75.90-6.27L75.90-6.27L75.90-6.27Q75.90-2.35 78.69-2.35L78.69-2.35L78.69-2.35Q80.51-2.35 82.00-3.68L82.00-3.68L82.00-3.68Q83.50-5.00 83.50-6.49L83.50-6.49L83.50-6.49Q83.50-7.99 82.54-9.06L82.54-9.06L82.54-9.06Q81.59-10.14 80.16-11.00L80.16-11.00L80.16-11.00Q78.74-11.86 77.10-12.69L77.10-12.69L77.10-12.69Q75.46-13.52 74.04-14.70L74.04-14.70L74.04-14.70Q70.71-17.39 70.71-21.71L70.71-21.71L70.71-21.71Q70.71-24.50 72.08-26.68L72.08-26.68L72.08-26.68Q73.45-28.86 75.66-30.33L75.66-30.33L75.66-30.33Q80.07-33.32 85.48-33.32L85.48-33.32L85.48-33.32Q90.90-33.32 93.52-31.70L93.52-31.70L93.52-31.70Q96.14-30.09 96.14-27.34L96.14-27.34L96.14-27.34Q96.14-24.94 94.28-23.42L94.28-23.42L94.28-23.42Q92.66-22.15 90.70-22.15L90.70-22.15L90.70-22.15Q88.74-22.15 87.37-22.64ZM101.09-23.86L101.09-23.86L101.09-23.86Q99.42-25.14 99.42-27.86L99.42-27.86L99.42-27.86Q99.42-30.58 101.21-32.00L101.21-32.00L101.21-32.00Q103.00-33.42 106.09-33.42L106.09-33.42L106.09-33.42Q108.05-33.42 112.70-32.73L112.70-32.73L116.03-32.24L116.03-32.24Q117.70-32.05 119.44-32.05L119.44-32.05L119.44-32.05Q121.18-32.05 122.35-32.78L122.35-32.78L122.35-32.78Q124.12-31.21 124.12-28.96L124.12-28.96L124.12-28.96Q124.12-26.71 122.11-25.09L122.11-25.09L122.11-25.09Q120.05-23.37 117.40-23.37L117.40-23.37L117.40-23.37Q116.13-23.37 114.07-23.72L114.07-23.72L114.07-23.72Q111.67-16.17 111.67-10.93L111.67-10.93L111.67-10.93Q111.67-5.68 114.32-2.94L114.32-2.94L114.32-2.94Q113.09-0.73 111.28 0.12L111.28 0.12L111.28 0.12Q109.47 0.98 106.75 0.98L106.75 0.98L106.75 0.98Q104.03 0.98 102.34-0.51L102.34-0.51L102.34-0.51Q100.65-2.01 100.65-5.10L100.65-5.10L100.65-5.10Q100.65-8.67 102.61-14.55L102.61-14.55L102.61-14.55Q104.57-20.38 107.51-24.84L107.51-24.84L107.51-24.84Q106.09-24.99 104.62-24.99L104.62-24.99L104.62-24.99Q101.58-24.99 101.09-23.86ZM123.28-11.96L123.28-11.96L123.28-11.96Q123.28-21.22 128.09-27.05L128.09-27.05L128.09-27.05Q133.18-33.37 142.05-33.37L142.05-33.37L142.05-33.37Q148.47-33.37 151.70-30.26L151.70-30.26L151.70-30.26Q154.94-27.15 154.94-20.58L154.94-20.58L154.94-20.58Q154.94-10.58 149.84-4.75L149.84-4.75L149.84-4.75Q144.80 0.98 136.32 0.98L136.32 0.98L136.32 0.98Q129.70 0.98 126.49-2.33L126.49-2.33L126.49-2.33Q123.28-5.63 123.28-11.96ZM136.17-22.10L136.17-22.10L136.17-22.10Q133.97-13.28 133.97-6.32L133.97-6.32L133.97-6.32Q133.97-4.66 134.53-3.58L134.53-3.58L134.53-3.58Q135.09-2.50 136.59-2.50L136.59-2.50L136.59-2.50Q138.08-2.50 139.01-3.21L139.01-3.21L139.01-3.21Q139.94-3.92 140.68-5.54L140.68-5.54L140.68-5.54Q141.86-8.18 142.96-13.79L142.96-13.79L142.96-13.79Q144.06-19.40 144.16-21.73L144.16-21.73L144.16-21.73Q144.26-24.06 144.26-25.82L144.26-25.82L144.26-25.82Q144.26-27.59 143.72-28.71L143.72-28.71L143.72-28.71Q143.18-29.84 141.73-29.84L141.73-29.84L141.73-29.84Q140.29-29.84 139.31-28.96L139.31-28.96L139.31-28.96Q137.49-27.29 136.17-22.10ZM176.50-32.68L176.50-32.68L176.50-32.68Q188.50-32.68 188.50-24.21L188.50-24.21L188.50-24.21Q188.50-19.55 185.51-16.76L185.51-16.76L185.51-16.76Q182.57-13.96 177.43-13.96L177.43-13.96L177.43-13.96Q175.03-13.96 173.17-15.34L173.17-15.34L173.17-15.34Q172.28-15.93 171.70-16.71L171.70-16.71L171.70-16.71Q175.27-16.71 177.16-18.89L177.16-18.89L177.16-18.89Q179.05-21.07 179.05-25.33L179.05-25.33L179.05-25.33Q179.05-29.60 174.83-29.60L174.83-29.60L173.66-29.60L173.66-29.60Q173.36-29.60 173.12-29.55L173.12-29.55L167.48 0L156.85 0L162.88-32.09L162.88-32.09Q168.12-32.59 171.16-32.63L171.16-32.63L171.16-32.63Q174.19-32.68 176.50-32.68Z" fill="url(#editing-glowing-gradient)"></path></g></g><style>text {
	font-size: 70px;
	font-family: Arial Black;
	dominant-baseline: central;
	text-anchor: middle;
	}</style></svg>